<?xml version="1.0" encoding="UTF-8"?>
<svg width="32px" height="32px" viewBox="0 0 32 32" version="1.1" xmlns="http://www.w3.org/2000/svg" xmlns:xlink="http://www.w3.org/1999/xlink">
    <!-- Generator: Sketch 42 (36781) - http://www.bohemiancoding.com/sketch -->
    <title>Artboard</title>
    <desc>Created with Sketch.</desc>
    <defs></defs>
    <g id="Page-1" stroke="none" stroke-width="1" fill="none" fill-rule="evenodd">
        <g id="Artboard" fill-rule="nonzero" fill="#222222">
            <g id="01a72eba-647e-4abf-abe6-89b02e388a7f%2Fanon-avatar" transform="translate(5.000000, 11.000000)">
                <g id="home">
                    <g id="returning-anon-user">
                        <g id="anon-avatar">
                            <ellipse id="Oval-138" cx="2.98069993" cy="2.98865576" rx="2.76527588" ry="2.81696779"></ellipse>
                            <ellipse id="Oval-138-Copy" cx="19.0193001" cy="2.98865576" rx="2.76527588" ry="2.81696779"></ellipse>
                            <path d="M6.23478406,9.21953319 C6.49857248,9.44986415 6.93146057,9.75129365 7.52002509,10.0429747 C9.82703355,11.1862831 12.5277733,11.1862831 15.2709223,9.3233316 C15.9141522,8.88649567 16.0879658,8.00118199 15.6591459,7.34592812 C15.230326,6.69067426 14.361258,6.5136115 13.7180281,6.95044743 C11.8682149,8.20670887 10.2141461,8.20670887 8.74471901,7.47848946 C8.38917463,7.30228861 8.15012936,7.13583616 8.05668741,7.05424584 C7.46973191,6.54173648 6.58606349,6.61098161 6.08295879,7.20890922 C5.57985407,7.80683682 5.64782857,8.70702381 6.23478406,9.21953319 Z" id="Path-1550"></path>
                        </g>
                    </g>
                </g>
            </g>
        </g>
    </g>
</svg>