<svg width="276" height="276" viewBox="0 0 276 276" xmlns="http://www.w3.org/2000/svg"><title>2</title><desc>Created with Sketch.</desc><g fill="none"><path fill="#F3B9BA" d="M0 0h276v276h-276z"/><g><path fill="#F39B4D" d="M45 56h184v178h-184z"/><g><path d="M143.571 48.975s-.865-8.996-9.684-8.996c-9.424 0-9.857 8.996-9.857 8.996h19.541zm85.685 185.105l6.485 6.487-6.485-6.487zm-190.824 6.314l6.571-6.574-6.571 6.574zm197.395-191.42l-6.571 6.574 6.571-6.574zm-197.395 0l6.571 6.66h184.252v178.445h-183.907l-.346-178.445-6.571-6.66zm0 0h197.395v191.42h-197.395v-191.42z" stroke="#222" stroke-width="3" stroke-linecap="round" stroke-linejoin="round"/><path d="M133.801 36.692c1.815 0 3.286 1.471 3.286 3.287 0 1.816-1.471 3.287-3.286 3.287s-3.286-1.471-3.286-3.287c0-1.816 1.471-3.287 3.286-3.287" fill="#000"/><path d="M133.801 36.692c1.815 0 3.286 1.471 3.286 3.287 0 1.816-1.471 3.287-3.286 3.287s-3.286-1.471-3.286-3.287c0-1.816 1.471-3.287 3.286-3.287z" stroke="#222"/></g><g><path fill="#222" d="M105.055 211.786h-3v-50.834h3z"/><path d="M98.182 159.229s-5.625-4.642-6.434-5.15c-.811-.508-3.648-3.306-3.918-3.752-.266-.444-3.6-3.496-4.002-3.623-.405-.127-4.454-3.879-5.942-3.625l13.009 19.649 7.287-3.499z" fill="#000"/><path d="M74.153 182.529s-.493-9.596-1.411-10.674c-1.181-1.392-1.143-17.4-.8-18.429.344-1.029.796-9.74 3.773-10.291 5.587-1.035 7.644 4.262 19.441 18.525l-21.003 20.869z" fill="#000"/><path d="M132.04 161.66s-10.95-1.907-9.629-3.126c1.099-1.015 7.532-6.251 8.515-6.785.82-.669 4.432-3.604 4.764-3.908.928-.849 3.416-2.653 3.929-2.978.771-.499 5.123-3.843 7.035-.685l-14.614 17.482" fill="#000"/><path d="M147.641 184.872s1.028-10.711 1.753-12.272c1.334-1.563 1.067-18.145.724-19.173-.344-1.029-.796-9.74-3.774-10.292-5.584-1.035-7.644 4.263-19.44 18.525l20.737 23.212z" fill="#000"/><path d="M110.189 220.664c-25.784.112-38.819-14.639-37.105-32.704 1.46-15.369 14.408-31.559 37.105-31.103 18.979.383 36.535 12.351 38.248 30.989 1.892 20.577-12.691 32.703-38.248 32.818" fill="#000"/><path d="M129.076 169.969c7.875 0 14.259 6.18 14.259 13.803 0 7.623-6.384 13.802-14.259 13.802s-14.259-6.179-14.259-13.802c0-7.623 6.384-13.803 14.259-13.803" fill="#fff"/><path d="M128.561 174.695c4.505 0 8.156 3.652 8.156 8.156 0 4.506-3.651 8.157-8.156 8.157-4.505 0-8.157-3.651-8.157-8.157 0-4.504 3.652-8.156 8.157-8.156" fill="#000"/><path d="M92.485 169.969c7.875 0 14.259 6.18 14.259 13.803 0 7.623-6.384 13.802-14.259 13.802s-14.259-6.179-14.259-13.802c0-7.623 6.384-13.803 14.259-13.803" fill="#fff"/><path d="M92.887 174.695c4.505 0 8.156 3.652 8.156 8.156 0 4.506-3.651 8.157-8.156 8.157-4.505 0-8.157-3.651-8.157-8.157 0-4.504 3.652-8.156 8.157-8.156" fill="#000"/><path d="M200.353 213.504c3.053-13.041 1.716-20.352 1.373-23.097-.344-2.745-3.011-7.662-6.976-3.431 0 0-.876 14.75-4.46 20.886-3.758 6.439-4.034 6.033-6.727 8.319-7.002 5.945-10.693 6.021-14.25 6.021-3.558 0-7.36-.345-9.817-1.394-2.261-.966-13.232-3.532-17.462-12.565l-47.3 9.642s.115.787.288 1.906c.301 1.943.783 4.914 1.171 6.641-.388-1.729-.869-4.698-1.171-6.64-.06 2.13-.306 9.035-1.037 13.609h86.684c1.134 0 16.655-6.952 19.684-19.897" fill="#000"/></g></g><path d="M79.276 92.224c2.976 0 4.384-1.664 4.96-4.048l-2.448-.544c-.416 1.616-1.104 2.496-2.496 2.496-1.792 0-2.784-1.568-2.784-4.064 0-2.448.96-3.968 2.752-3.968 1.392 0 1.968.928 2.352 2.288l2.464-.72c-.512-2.128-1.808-3.728-4.8-3.728s-5.376 2.016-5.376 6.128c0 4.176 2.288 6.16 5.376 6.16zm6.704-.224h2.56v-11.84h-2.56v11.84zm4.688-9.696h2.592v-2.064h-2.592v2.064zm.016 9.696h2.56v-8.528h-2.56v8.528zm8.336.176c2.256 0 3.312-1.264 3.856-2.592l-2.128-.736c-.368 1.152-.992 1.52-1.68 1.52-1.184 0-1.664-1.088-1.664-2.608 0-1.696.656-2.576 1.696-2.576.752 0 1.248.352 1.584 1.44l2.16-.72c-.496-1.376-1.392-2.608-3.712-2.608-1.888 0-4.304 1.04-4.304 4.448 0 3.312 2.192 4.432 4.192 4.432zm5.152-.176h2.576v-2.304l1.04-1.168 1.888 3.472h2.656l-2.944-5.344 2.784-3.184h-2.768l-2.656 3.184v-6.496h-2.576v11.84zm13.664 0h2.576v-5.728c.576-.496 1.088-.848 1.728-.848.752 0 .928.4.928 1.168v5.408h2.576v-5.728c.56-.496 1.072-.848 1.712-.848.752 0 .928.4.928 1.168v5.408h2.576v-6.096c0-1.52-.768-2.608-2.496-2.608-1.344 0-2.304.864-2.816 1.52-.24-.928-.912-1.52-2.336-1.52-1.344 0-2.288.848-2.8 1.52v-1.344h-2.576v8.528zm18.8.176c1.488 0 2.72-.432 3.712-1.28l-.992-1.536c-.576.528-1.52 1.024-2.528 1.024-1.072 0-1.856-.544-1.984-1.952h5.648v-.384c0-3.872-2.16-4.752-3.92-4.752-1.76 0-4.288 1.136-4.288 4.448 0 3.296 2.128 4.432 4.352 4.432zm-1.76-5.264c.192-1.248.88-1.776 1.68-1.776.96 0 1.504.576 1.632 1.776h-3.312zm14.992 5.2c.56 0 1.504-.08 1.696-.128v-1.84c-.176.064-.56.096-.848.096-.928 0-1.184-.288-1.184-1.2v-3.696h2.192v-1.872h-2.192v-2.928h-2.56v2.928h-1.424v1.872h1.424v4.256c0 1.6.368 2.512 2.896 2.512zm7.152.064c2.064 0 4.352-1.12 4.352-4.432 0-3.344-2.288-4.448-4.352-4.448-2.08 0-4.368 1.104-4.368 4.448 0 3.312 2.304 4.432 4.368 4.432zm0-1.808c-1.312 0-1.792-1.184-1.792-2.608 0-1.536.56-2.576 1.792-2.576 1.28 0 1.776 1.152 1.776 2.576 0 1.552-.56 2.608-1.776 2.608zm13.872 1.808c2.256 0 3.312-1.264 3.856-2.592l-2.128-.736c-.368 1.152-.992 1.52-1.68 1.52-1.184 0-1.664-1.088-1.664-2.608 0-1.696.656-2.576 1.696-2.576.752 0 1.248.352 1.584 1.44l2.16-.72c-.496-1.376-1.392-2.608-3.712-2.608-1.888 0-4.304 1.04-4.304 4.448 0 3.312 2.192 4.432 4.192 4.432zm9.056 0c2.064 0 4.352-1.12 4.352-4.432 0-3.344-2.288-4.448-4.352-4.448-2.08 0-4.368 1.104-4.368 4.448 0 3.312 2.304 4.432 4.368 4.432zm0-1.808c-1.312 0-1.792-1.184-1.792-2.608 0-1.536.56-2.576 1.792-2.576 1.28 0 1.776 1.152 1.776 2.576 0 1.552-.56 2.608-1.776 2.608zm5.84 4.832h2.576v-4.208c.64.72 1.44 1.136 2.592 1.136 1.952 0 3.312-1.456 3.312-4.4 0-2.944-1.344-4.432-3.28-4.432-1.264 0-2.064.704-2.624 1.472v-1.296h-2.576v11.728zm4.288-5.008c-.688 0-1.152-.256-1.712-.784v-3.152c.432-.432 1.024-.832 1.68-.832 1.152 0 1.648.896 1.648 2.32 0 1.552-.544 2.448-1.616 2.448zm7.04 5.072c1.712 0 2.496-.896 3.072-2.368l3.584-9.424h-2.496l-1.888 5.536h-.032l-1.872-5.536h-2.656l3.264 8.576-.16.416c-.208.528-.528.736-1.088.736-.768 0-1.376-.16-1.616-.224l-.544 1.984c.448.128 1.168.304 2.432.304zm-87.856 14.736h2.576v-5.728c.576-.496 1.088-.848 1.728-.848.752 0 .928.4.928 1.168v5.408h2.576v-5.728c.56-.496 1.072-.848 1.712-.848.752 0 .928.4.928 1.168v5.408h2.576v-6.096c0-1.52-.768-2.608-2.496-2.608-1.344 0-2.304.864-2.816 1.52-.24-.928-.912-1.52-2.336-1.52-1.344 0-2.288.848-2.8 1.52v-1.344h-2.576v8.528zm16.256 3.264c1.712 0 2.496-.896 3.072-2.368l3.584-9.424h-2.496l-1.888 5.536h-.032l-1.872-5.536h-2.656l3.264 8.576-.16.416c-.208.528-.528.736-1.088.736-.768 0-1.376-.16-1.616-.224l-.544 1.984c.448.128 1.168.304 2.432.304zm16.752-3.072c3.296 0 4.768-1.824 4.768-4.736v-7.296h-2.56v7.248c0 1.728-.64 2.672-2.176 2.672-1.552 0-2.208-.96-2.208-2.672v-7.248h-2.608v7.312c0 2.896 1.488 4.72 4.784 4.72zm7.008-.192h2.56v-4.464h1.504l2.464 4.464h2.752l-2.64-4.8c1.584-.48 2.464-1.504 2.464-3.376 0-2.624-1.744-3.664-4.656-3.664h-4.448v11.84zm2.56-6.48v-3.232h1.776c1.504 0 2.224.432 2.224 1.6 0 1.2-.72 1.632-2.224 1.632h-1.776zm8.72 6.48h7.824v-2.112h-5.216v-9.728h-2.608v11.84z" fill="#fff"/></g></svg>