<?xml version="1.0" encoding="UTF-8"?>
<svg width="168px" height="113px" viewBox="0 0 168 113" version="1.1" xmlns="http://www.w3.org/2000/svg" xmlns:xlink="http://www.w3.org/1999/xlink">
    <!-- Generator: Sketch 55.2 (78181) - https://sketchapp.com -->
    <title>developers</title>
    <desc>Created with Sketch.</desc>
    <g id="developers" stroke="none" stroke-width="1" fill="none" fill-rule="evenodd">
        <g id="c258d08b-9412-4115-816c-30444c24e1eb_developers-mask" transform="translate(-15.000000, -23.000000)" fill="#FFA499" fill-rule="nonzero">
            <path d="M112.077941,37.4064234 C123.250772,30.5205801 136.946228,20.0701721 151.672188,24.210877 C166.398148,28.3515818 178.041033,43.7919836 178.041033,59.6955436 C178.041033,75.5991035 166.585872,107.118987 141.602177,120.405709 C116.618482,133.69243 87.6302927,143.993565 52.2267614,131.900673 C16.82323,119.807782 10.7920708,84.4526255 14.6513377,68.7866965 C18.5106047,53.1207675 28.8626484,42.1438449 38.0202718,39.7751341 C47.1778953,37.4064234 52.3219775,42.2769865 70.0466433,46.7372313 C87.771309,51.1974761 100.90511,44.2922667 112.077941,37.4064234 Z" id="developers-mask" transform="translate(95.838554, 80.269311) rotate(18.000000) translate(-95.838554, -80.269311) "></path>
        </g>
        <g id="fea4026e-9552-4533-a838-40d5a5b6b175_developers" transform="translate(24.000000, 10.000000)">
            <g id="computer" transform="translate(53.107169, 35.165758) scale(-1, 1) translate(-53.107169, -35.165758) translate(0.607169, 0.165758)">
                <polygon id="Fill-1" fill="#FCF3B0" fill-rule="nonzero" points="0 44.3321257 73.3171896 44.3321257 104.28125 69.5208334 30.003594 69.5208334"></polygon>
                <polygon id="Stroke-2" stroke="#222222" stroke-width="1.77101459" stroke-linecap="round" stroke-linejoin="round" points="0 44.3321257 73.3171896 44.3321257 104.28125 69.5208334 30.003594 69.5208334"></polygon>
                <polygon id="Fill-4" fill="#FCF3B0" fill-rule="nonzero" points="14.1056763 48.3623188 68.2367744 48.3623188 88.6642512 63.9793176 33.5743046 63.9793176"></polygon>
                <polygon id="Stroke-5" stroke="#222222" stroke-width="1.77101459" stroke-linecap="round" stroke-linejoin="round" points="68.2367744 48.3623188 88.6642512 63.9793176 33.5743046 63.9793176 14.1056763 48.3623188"></polygon>
                <polygon id="Fill-6" fill="#FCF3B0" fill-rule="nonzero" points="0 0 74.0548007 0 74.0548007 44.8358997 0 44.8358997"></polygon>
                <polygon id="Stroke-7" stroke="#222222" stroke-width="1.77101459" stroke-linecap="round" stroke-linejoin="round" points="0 0 74.0548007 0 74.0548007 44.8358997 0 44.8358997"></polygon>
                <polygon id="Fill-9" fill="#FFFFFF" fill-rule="nonzero" points="5.03774154 5.03774154 69.0170592 5.03774154 69.0170592 39.7981582 5.03774154 39.7981582"></polygon>
                <polygon id="Stroke-10" stroke="#222222" stroke-width="1.77101459" stroke-linejoin="round" points="5.03774154 5.03774154 69.0170592 5.03774154 69.0170592 39.7981582 5.03774154 39.7981582"></polygon>
                <path d="M27.7075785,48.3623188 L47.3547705,63.9793176" id="Fill-11" fill="#FFFFFF" fill-rule="nonzero"></path>
                <path d="M27.7075785,48.3623188 L47.3547705,63.9793176" id="Stroke-12" stroke="#222222" stroke-width="1.77101459" stroke-linejoin="round"></path>
                <path d="M40.8057065,48.3623188 L60.4528985,63.9793176" id="Fill-14" fill="#FFFFFF" fill-rule="nonzero"></path>
                <path d="M40.8057065,48.3623188 L60.4528985,63.9793176" id="Stroke-15" stroke="#222222" stroke-width="1.77101459" stroke-linejoin="round"></path>
                <path d="M54.9113828,48.3623188 L74.5585749,63.9793176" id="Fill-17" fill="#FFFFFF" fill-rule="nonzero"></path>
                <path d="M54.9113828,48.3623188 L74.5585749,63.9793176" id="Stroke-18" stroke="#222222" stroke-width="1.77101459" stroke-linejoin="round"></path>
                <path d="M20.6547404,53.4000604 L75.062349,53.4000604 L20.6547404,53.4000604 Z" id="Fill-20" fill="#FFFFFF" fill-rule="nonzero"></path>
                <path d="M20.6547404,53.9038346 L75.062349,53.9038346" id="Stroke-21" stroke="#222222" stroke-width="1.49855072" stroke-linejoin="round"></path>
                <path d="M27.7075785,59.4453503 L82.6189614,59.4453503 L27.7075785,59.4453503 Z" id="Fill-22" fill="#FFFFFF" fill-rule="nonzero"></path>
                <path d="M27.7075785,59.4453503 L82.6189614,59.4453503" id="Stroke-23" stroke="#222222" stroke-width="1.77101459" stroke-linejoin="round"></path>
                <path d="M10.0754831,10.5792572 L15.6169988,10.5792572 L10.0754831,10.5792572 Z" id="Fill-24" fill="#FFFFFF" fill-rule="nonzero"></path>
                <path d="M10.0754831,15.6169988 L22.6698369,15.6169988 L10.0754831,15.6169988 Z" id="Fill-26" fill="#FFFFFF" fill-rule="nonzero"></path>
                <path d="M10.0754831,21.1585145 L39.2943841,21.1585145 L10.0754831,21.1585145 Z" id="Fill-28" fill="#FFFFFF" fill-rule="nonzero"></path>
                <path d="M37.2792874,15.6169988 L49.8736413,15.6169988 L37.2792874,15.6169988 Z" id="Fill-30" fill="#FFFFFF" fill-rule="nonzero"></path>
                <path d="M54.4076087,15.6169988 L61.4604469,15.6169988 L54.4076087,15.6169988 Z" id="Fill-32" fill="#FFFFFF" fill-rule="nonzero"></path>
                <path d="M26.7000302,15.6169988 L32.74532,15.6169988 L26.7000302,15.6169988 Z" id="Fill-34" fill="#FFFFFF" fill-rule="nonzero"></path>
                <path d="M19.647192,10.5792572 L22.1660628,10.5792572 L19.647192,10.5792572 Z" id="Fill-36" fill="#FFFFFF" fill-rule="nonzero"></path>
                <path d="M26.1962561,10.5792572 L38.7906099,10.5792572 L26.1962561,10.5792572 Z" id="Fill-38" fill="#FFFFFF" fill-rule="nonzero"></path>
            </g>
            <path d="M41.6278512,10.7450156 L47.1693669,10.7450156" id="Stroke-25" stroke="#222222" stroke-width="1.77101459" stroke-linecap="round" stroke-linejoin="round"></path>
            <path d="M41.6278512,15.7827572 L54.2222051,15.7827572" id="Stroke-27" stroke="#222222" stroke-width="1.77101459" stroke-linecap="round" stroke-linejoin="round"></path>
            <path d="M41.6278512,21.3242729 L70.8467522,21.3242729" id="Stroke-29" stroke="#222222" stroke-width="1.77101459" stroke-linecap="round" stroke-linejoin="round"></path>
            <path d="M68.8316555,15.7827572 L81.4260095,15.7827572" id="Stroke-31" stroke="#222222" stroke-width="1.77101459" stroke-linecap="round" stroke-linejoin="round"></path>
            <path d="M85.9599768,15.7827572 L93.012815,15.7827572" id="Stroke-33" stroke="#222222" stroke-width="1.77101459" stroke-linecap="round" stroke-linejoin="round"></path>
            <path d="M58.2523984,15.7827572 L64.2976881,15.7827572" id="Stroke-35" stroke="#222222" stroke-width="1.77101459" stroke-linecap="round" stroke-linejoin="round"></path>
            <path d="M51.1995601,10.7450156 L53.7184309,10.7450156" id="Stroke-37" stroke="#222222" stroke-width="1.77101459" stroke-linecap="round" stroke-linejoin="round"></path>
            <path d="M57.7486242,10.7450156 L70.342978,10.7450156" id="Stroke-39" stroke="#222222" stroke-width="1.77101459" stroke-linecap="round" stroke-linejoin="round"></path>
        </g>
    </g>
</svg>