<svg width="276" height="276" viewBox="0 0 276 276" xmlns="http://www.w3.org/2000/svg"><title>3</title><desc>Created with Sketch.</desc><g fill="none"><g><path fill="#6699CD" d="M0 0h276v276h-276z"/><path d="M42.216 34h3.632c3.568 0 6.336-1.536 6.336-5.984 0-4.32-2.72-5.856-6.336-5.856h-3.632v11.84zm2.592-2.112v-7.552h1.184c2.592 0 3.584 1.184 3.584 3.712 0 2.688-.976 3.84-3.552 3.84h-1.216zm9.008 2.112h2.576v-5.296c.48-.624 1.248-1.168 2.272-1.168.16 0 .576.032.672.048l.032-2.288h-.08c-1.6 0-2.416.88-2.88 1.6h-.016v-1.424h-2.576v8.528zm8.64.128c1.264 0 2.192-.496 2.976-1.376 0 .48.08.896.192 1.248h2.56c-.176-.432-.24-1.056-.24-2.08v-3.28c0-2.192-.96-3.344-3.296-3.344-2.128 0-3.408.752-4.256 1.52l1.088 1.472c.784-.608 1.712-1.056 2.8-1.056.832 0 1.152.4 1.152 1.024v.208c-3.744.304-5.408 1.392-5.408 3.36 0 1.456 1.12 2.304 2.432 2.304zm1.024-1.936c-.56 0-.944-.272-.944-.816 0-.784.864-1.296 2.896-1.504v1.584c-.432.432-1.056.736-1.952.736zm9.696 5.008c2.832 0 4.896-.848 4.896-2.608 0-1.6-1.184-2.304-4.112-2.416l-1.28-.08c-.624-.032-.96-.096-.96-.416 0-.16.112-.288.288-.432.384.08.832.144 1.312.144 2.448 0 3.776-1.312 3.776-3.04 0-.336-.064-.624-.16-.848.608-.16 1.136-.192 1.44-.192v-1.968c-.704.048-1.616.384-2.192.88-.64-.576-1.6-.928-2.864-.928-2.464 0-3.84 1.344-3.84 3.056 0 1.024.48 1.904 1.408 2.448-.672.432-1.232 1.04-1.232 1.744 0 .448.208.784.576 1.024-.784.32-1.472.88-1.472 1.712 0 1.2 1.088 1.92 4.416 1.92zm.176-7.232c-.928 0-1.456-.656-1.456-1.52s.512-1.52 1.456-1.52c.96 0 1.456.656 1.456 1.52s-.512 1.52-1.456 1.52zm.24 5.936c-1.744 0-2.432-.352-2.432-1.088 0-.288.16-.56.48-.768l.56.048 1.344.064c2.016.096 2.272.336 2.272.864 0 .56-.912.88-2.224.88zm10.448-11.6h2.592v-2.064h-2.592v2.064zm.016 9.696h2.56v-8.528h-2.56v8.528zm4.624 0h2.576v-5.728c.576-.496 1.168-.848 1.856-.848.72 0 1.008.4 1.008 1.168v5.408h2.56v-6.224c0-1.76-1.04-2.48-2.48-2.48-1.488 0-2.432.848-2.944 1.52v-1.344h-2.576v8.528zm14.944 0h2.56v-6.656h1.856v-1.872h-1.856v-.512c0-.912.576-1.024 1.2-1.024.256 0 .624.032.752.064v-1.792c-.144-.032-1.056-.112-1.552-.112-2.528 0-2.96 1.36-2.96 2.784v.592h-1.424v1.872h1.424v6.656zm5.792-9.696h2.592v-2.064h-2.592v2.064zm.016 9.696h2.56v-8.528h-2.56v8.528zm4.704 0h2.56v-11.84h-2.56v11.84zm8.496.176c1.488 0 2.72-.432 3.712-1.28l-.992-1.536c-.576.528-1.52 1.024-2.528 1.024-1.072 0-1.856-.544-1.984-1.952h5.648v-.384c0-3.872-2.16-4.752-3.92-4.752-1.76 0-4.288 1.136-4.288 4.448 0 3.296 2.128 4.432 4.352 4.432zm-1.76-5.264c.192-1.248.88-1.776 1.68-1.776.96 0 1.504.576 1.632 1.776h-3.312zm10.464 5.264c1.968 0 3.76-.816 3.76-2.88 0-1.936-1.776-2.32-3.456-2.608-1.056-.192-1.52-.4-1.52-.912 0-.464.416-.752 1.152-.752.8 0 1.648.336 2.512.928l1.008-1.456c-.944-.752-2-1.2-3.744-1.2-1.904 0-3.312.992-3.312 2.704 0 2 1.728 2.384 3.344 2.672 1.168.208 1.616.432 1.616 1.024 0 .56-.56.832-1.36.832-1.04 0-2.192-.432-2.96-1.104l-1.024 1.44c.864.736 2.112 1.312 3.984 1.312zm13.072-.064c.56 0 1.504-.08 1.696-.128v-1.84c-.176.064-.56.096-.848.096-.928 0-1.184-.288-1.184-1.2v-3.696h2.192v-1.872h-2.192v-2.928h-2.56v2.928h-1.424v1.872h1.424v4.256c0 1.6.368 2.512 2.896 2.512zm7.152.064c2.064 0 4.352-1.12 4.352-4.432 0-3.344-2.288-4.448-4.352-4.448-2.08 0-4.368 1.104-4.368 4.448 0 3.312 2.304 4.432 4.368 4.432zm0-1.808c-1.312 0-1.792-1.184-1.792-2.608 0-1.536.56-2.576 1.792-2.576 1.28 0 1.776 1.152 1.776 2.576 0 1.552-.56 2.608-1.776 2.608zm12.016 1.76c1.264 0 2.192-.496 2.976-1.376 0 .48.08.896.192 1.248h2.56c-.176-.432-.24-1.056-.24-2.08v-3.28c0-2.192-.96-3.344-3.296-3.344-2.128 0-3.408.752-4.256 1.52l1.088 1.472c.784-.608 1.712-1.056 2.8-1.056.832 0 1.152.4 1.152 1.024v.208c-3.744.304-5.408 1.392-5.408 3.36 0 1.456 1.12 2.304 2.432 2.304zm1.024-1.936c-.56 0-.944-.272-.944-.816 0-.784.864-1.296 2.896-1.504v1.584c-.432.432-1.056.736-1.952.736zm9.152 1.936c1.264 0 2.064-.64 2.624-1.408 0 .432.08 1.072.192 1.28h2.64c-.192-.432-.256-1.056-.256-2.08v-9.76h-2.576v4.384c-.608-.832-1.44-1.248-2.592-1.248-1.952 0-3.312 1.568-3.312 4.512 0 2.944 1.344 4.32 3.28 4.32zm.96-1.936c-1.152 0-1.664-.976-1.664-2.4 0-1.552.56-2.368 1.632-2.368.672 0 1.136.256 1.696.784v3.152c-.416.432-1.008.832-1.664.832zm9.024 1.936c1.264 0 2.064-.64 2.624-1.408 0 .432.08 1.072.192 1.28h2.64c-.192-.432-.256-1.056-.256-2.08v-9.76h-2.576v4.384c-.608-.832-1.44-1.248-2.592-1.248-1.952 0-3.312 1.568-3.312 4.512 0 2.944 1.344 4.32 3.28 4.32zm.96-1.936c-1.152 0-1.664-.976-1.664-2.4 0-1.552.56-2.368 1.632-2.368.672 0 1.136.256 1.696.784v3.152c-.416.432-1.008.832-1.664.832zm14.096 1.92c.56 0 1.504-.08 1.696-.128v-1.84c-.176.064-.56.096-.848.096-.928 0-1.184-.288-1.184-1.2v-3.696h2.192v-1.872h-2.192v-2.928h-2.56v2.928h-1.424v1.872h1.424v4.256c0 1.6.368 2.512 2.896 2.512zm3.248-.112h2.576v-5.728c.576-.496 1.168-.848 1.872-.848.704 0 .992.4.992 1.168v5.408h2.576v-6.224c0-1.76-1.04-2.48-2.496-2.48-1.488 0-2.432.848-2.944 1.52v-4.656h-2.576v11.84zm13.776.176c1.488 0 2.72-.432 3.712-1.28l-.992-1.536c-.576.528-1.52 1.024-2.528 1.024-1.072 0-1.856-.544-1.984-1.952h5.648v-.384c0-3.872-2.16-4.752-3.92-4.752-1.76 0-4.288 1.136-4.288 4.448 0 3.296 2.128 4.432 4.352 4.432zm-1.76-5.264c.192-1.248.88-1.776 1.68-1.776.96 0 1.504.576 1.632 1.776h-3.312zm7.104 5.088h2.576v-5.728c.576-.496 1.088-.848 1.728-.848.752 0 .928.4.928 1.168v5.408h2.576v-5.728c.56-.496 1.072-.848 1.712-.848.752 0 .928.4.928 1.168v5.408h2.576v-6.096c0-1.52-.768-2.608-2.496-2.608-1.344 0-2.304.864-2.816 1.52-.24-.928-.912-1.52-2.336-1.52-1.344 0-2.288.848-2.8 1.52v-1.344h-2.576v8.528z" fill="#fff"/><g transform="translate(139 55)"><path d="M68.62 79.41s-.293 4.477-3.795 7.672c-1.566 1.43-3.775 2.603-6.886 3.003-7.708.006-51.206.093-51.206.093s-3.683-.941-6.277-6.129c0-1-2.011 17.013 2.407 31.381 4.418 14.369 19.593 17.619 19.593 17.619s18 6 38 0c7-4 15-8 19-26 1-6 1-7 1-11v-80s-.457-13.05-7-15c-3.836-1-14-3-15 4s2 7 4 8c4 1 6.164 0 6.164 8v58.36z" stroke="#222" stroke-width="3" stroke-linecap="round" stroke-linejoin="bevel" fill="#F3B9BA"/><path stroke="#222" stroke-width="3" stroke-linecap="round" d="M35 136l-12.5 31.5 12.5 36"/><path d="M55.817 7.555l-7.364 2.517c-.293.1-.479.387-.449.693.03.307.267.553.574.595l10.82 1.502.092.006c.266 0 .512-.158.617-.408.117-.279.031-.6-.21-.785-1.808-1.381-1.568-3.954-1.567-3.978.01-.09.001-.179-.024-.263.035-.115.038-.238.008-.358-.529-2.046 1.262-3.93 1.279-3.947.209-.215.248-.543.096-.801s-.46-.384-.751-.305l-10.442 2.796c-.3.08-.505.355-.495.664.01.309.233.57.538.631l7.278 1.441z" fill="#222"/><g stroke="#222" stroke-width="3" stroke-linecap="round"><path d="M72 98s4.708 29-31 29c-28 0-30-13.5-33-21.5s2.5-11 4-7.5 2 8.5 2 8.5"/><path d="M12 97.5s1.5-3.5 4.5-1c.5.5 2.5 7 2.5 9.5"/><path d="M17 96.9s3-2.9 5 0c.5.5 1.5 5.1 2 9.1"/></g><circle fill="#222" cx="64.5" cy="5.5" r="1.5"/><path d="M45.5 136v67.502" stroke="#222" stroke-width="3" stroke-linecap="round"/></g><g><path fill="#E96C64" d="M105.456 100.905h69.209v68.964h-69.209z"/><path stroke="#222" stroke-width="3" d="M105.456 100.905h69.209v68.964h-69.209z"/><path d="M86.154 96.321c30.932 0 56.007 24.986 56.007 55.809 0 30.822-25.075 55.809-56.007 55.809s-56.007-24.986-56.007-55.809c0-30.822 25.075-55.809 56.007-55.809" fill="#fff"/><path d="M86.154 96.321c30.932 0 56.007 24.986 56.007 55.809 0 30.822-25.075 55.809-56.007 55.809s-56.007-24.986-56.007-55.809c0-30.822 25.075-55.809 56.007-55.809z" stroke="#222" stroke-width="3"/><path d="M128.359 205.546c30.904 0 56.007-25.014 56.007-55.809h-112.015c0 30.894 25.003 55.809 56.007 55.809" fill="#6498CF"/><path d="M128.359 205.546c30.904 0 56.007-25.014 56.007-55.809h-112.015c0 30.894 25.003 55.809 56.007 55.809z" stroke="#222" stroke-width="3"/></g></g></g></svg>