<?xml version="1.0" encoding="UTF-8"?>
<svg width="250px" height="250px" viewBox="0 0 250 250" version="1.1" xmlns="http://www.w3.org/2000/svg" xmlns:xlink="http://www.w3.org/1999/xlink">
    <!-- Generator: Sketch 50.2 (55047) - http://www.bohemiancoding.com/sketch -->
    <title>fallback-project-avatar</title>
    <desc>Created with Sketch.</desc>
    <defs></defs>
    <g id="fallback-project-avatar" stroke="none" stroke-width="1" fill="none" fill-rule="evenodd">
        <rect id="Rectangle-9" fill="#E5E5E5" x="-3" y="0" width="261" height="256"></rect>
        <g id="ghost" transform="translate(31.000000, 22.000000)">
            <path d="M10.0597641,198.568181 C15.6883534,200.727006 26.9741335,188.843691 37.2527729,188.843691 C47.5314124,188.843691 49.4454416,202.090873 59.6839949,202.090873 C69.9225482,202.090873 74.8240591,190.329455 88.0493636,190.329455 C101.274668,190.329455 99.258498,202.090873 111.797804,202.090873 C124.33711,202.090873 129.846908,188.504528 138.8081,192.395774 C147.769292,196.28702 153.340999,205 163.245475,205 C173.14995,205 177.248859,176.507958 177.24182,162.693416 C177.23478,148.878874 172.428291,128.079372 173.843216,111.406648 C175.258141,94.7339247 187.230093,71.1402236 184.63239,54.6418256 C182.034687,38.1434275 164.941134,8.53009468 138.8081,5.9495581 C112.675065,3.36902153 91.785042,5.9495581 78.3816475,14.9027237 C64.9782531,23.8558893 61.4416305,37.6165136 55.3173279,52.2743957 C49.1930253,66.9322779 34.9099203,69.0428547 31.5837904,90.6450585 C28.2576606,112.247262 30.9347521,118.291802 27.2742494,132.737967 C23.6137467,147.184132 8.84741915,156.631119 6.40208645,170.823223 C3.95675375,185.015328 4.43117483,196.409355 10.0597641,198.568181 Z" id="Path-2" fill="#AEFFFF"></path>
            <path d="M1.50800598,168.853989 C2.66500973,162.134705 5.48619814,157.15028 11.9043418,148.566775 C12.1671121,148.215351 12.4264653,147.869428 12.945599,147.177343 C18.7965253,139.37391 21.1057581,135.540393 22.3640558,130.571329 C23.4593192,126.246093 24.0008563,122.597806 24.2760277,118.279443 C24.3736272,116.747778 24.4314962,115.363482 24.5202433,112.708044 C24.8486769,102.880859 25.2200545,97.825871 26.57308,89.0327256 C28.3312296,77.606729 32.1326855,71.4243778 40.6337753,62.7609781 C40.8596364,62.5308046 41.1431832,62.2425452 41.6451449,61.7322366 C46.637728,56.652443 48.7549593,53.9451589 50.494335,49.7794648 C51.0541973,48.4386299 51.6172962,47.0461069 52.2955813,45.3342852 C52.6272376,44.4972676 53.8016624,41.5106703 54.0423996,40.9019896 C60.3717218,24.8989132 65.1225197,17.2404896 75.0578929,10.599613 C89.0403793,1.25361623 110.343807,-1.76994716 138.062934,0.968971456 C162.709541,3.40429531 183.876343,29.7647956 187.554545,53.1406339 C188.814053,61.1451066 187.38809,69.7893552 183.461683,83.6026782 C183.094687,84.8937902 182.728742,86.1573979 182.175931,88.0497535 C178.441609,100.832889 177.302027,105.393105 176.847387,110.753793 C176.400478,116.023324 176.574822,122.053417 177.275976,129.628883 C177.549743,132.586734 177.861692,135.419925 178.39553,139.951614 C179.891792,152.653203 180.244909,156.317565 180.247543,161.490542 C180.259149,184.281791 174.200967,208 161.97438,208 C156.073944,208 151.8051,205.978996 145.518453,201.335575 C145.23712,201.127779 145.044688,200.984665 144.577054,200.635809 C144.112167,200.288456 144.112167,200.288456 143.652182,199.945027 C140.167336,197.34625 138.21349,196.080226 135.915191,195.081586 C134.591142,194.50627 133.464524,194.648361 131.632506,195.644311 C130.963425,196.008047 130.224619,196.477456 129.287627,197.126984 C128.71645,197.522927 126.605588,199.036383 126.480201,199.125191 C120.72654,203.200298 116.47882,205.101035 110.73941,205.101035 C104.179926,205.101035 100.811734,203.070374 96.1767772,198.049317 C92.724302,194.309918 91.1521877,193.380705 87.0891533,193.380705 C82.645159,193.380705 79.5774064,194.74592 74.3480903,198.445922 C74.0702248,198.642526 73.1191633,199.31925 73.0057722,199.399706 C72.4605168,199.786586 72.0361279,200.084267 71.618775,200.371079 C66.9539975,203.576795 63.3801551,205.101035 58.841056,205.101035 C52.98691,205.101035 49.8244912,202.898052 44.5205171,197.122158 C40.7360194,193.000928 39.1550091,191.900132 36.5025717,191.900132 C35.4551189,191.900132 34.2959493,192.084042 33.0111632,192.453748 C30.6675987,193.128124 28.233289,194.274525 24.5353512,196.330814 C13.52748,202.451893 12.2756527,202.993237 7.87311248,201.303572 C-0.278603097,198.174998 -1.51803091,186.427659 1.50800598,168.853989 Z M20.332389,188.724323 C24.5667643,186.36974 27.4801853,184.997708 30.6207898,184.093979 C32.6413064,183.512563 34.5909467,183.203238 36.5025717,183.203238 C42.381918,183.203238 45.5546706,185.412302 50.8748912,191.205899 C54.6424975,195.308728 56.2149826,196.404142 58.841056,196.404142 C61.2467731,196.404142 63.3674757,195.499664 66.7192711,193.196252 C67.0948322,192.93816 67.4867079,192.663285 67.9996249,192.29935 C68.1043939,192.225012 69.0620821,191.543573 69.3513167,191.338925 C75.9152524,186.694613 80.4336916,184.683811 87.0891533,184.683811 C94.0301063,184.683811 97.6033077,186.795787 102.350627,191.937554 C105.691988,195.557279 107.096652,196.404142 110.73941,196.404142 C114.257967,196.404142 117.063199,195.148878 121.480064,192.020574 C121.555869,191.966884 123.720747,190.414699 124.359186,189.97213 C125.531463,189.1595 126.515549,188.53425 127.50197,187.997997 C131.492051,185.828847 135.321326,185.345894 139.360883,187.101132 C142.442935,188.440322 144.833472,189.989307 148.82426,192.965383 C149.292678,193.315108 149.292678,193.315108 149.752935,193.659003 C150.209358,193.99949 150.391207,194.134733 150.658564,194.332207 C155.575727,197.964104 158.40402,199.303106 161.97438,199.303106 C163.605961,199.303106 166.358386,194.828483 168.446042,186.655163 C170.412247,178.957335 171.581958,168.92038 171.578176,161.494985 C171.575792,156.812123 171.23309,153.255844 169.786071,140.972268 C169.244333,136.373511 168.925875,133.481207 168.643739,130.43293 C167.899229,122.389049 167.711268,115.887983 168.209227,110.01653 C168.733527,103.834475 169.933175,99.0338971 173.856452,85.603937 C174.403801,83.7302809 174.76474,82.4839582 175.124638,81.2178186 C178.715316,68.5856091 179.991143,60.8514891 178.991206,54.4966505 C175.869196,34.6555445 157.36867,11.6155445 137.21314,9.62398257 C111.299193,7.06343324 91.8545104,9.82318771 79.8649203,17.8371179 C71.7981482,23.2290078 67.8273032,29.6301246 62.1006703,44.1093597 C61.8645297,44.7064183 60.6887518,47.6964568 60.3518301,48.5467626 C59.6555695,50.3039502 59.0737039,51.7428827 58.4905493,53.1395008 C56.2098252,58.60169 53.5353144,62.0215624 47.8185204,67.8382173 C47.3123684,68.3527886 47.0334852,68.636307 46.8120044,68.8620165 C39.4700099,76.3441906 36.5724417,81.0565387 35.1409731,90.3594761 C33.8516024,98.7389367 33.5025609,103.489898 33.1847425,112.999461 C33.0931867,115.738939 33.0325581,117.18925 32.9277369,118.834247 C32.6198613,123.665848 32.0000528,127.841442 30.7665493,132.712594 C29.1322282,139.166589 26.4035054,143.696493 19.8738719,152.405124 C19.3538048,153.098456 19.0983454,153.439186 18.8394894,153.785375 C13.2114091,161.312264 10.9017194,165.392982 10.0508574,170.334352 C8.84930298,177.312363 8.44738312,183.204138 8.89611247,187.45721 C9.27987045,191.094481 10.1699212,192.873438 10.9708623,193.180834 C11.5227426,193.392642 13.3865652,192.586644 20.332389,188.724323 Z" id="Path-2" fill="#222222" fill-rule="nonzero"></path>
            <path d="M99.5140704,75.7453853 C101.188332,77.4867618 101.091021,80.2156502 99.29672,81.840528 C97.502419,83.4654059 94.6905935,83.370965 93.0163318,81.6295885 L75.1946944,63.0935478 C73.6017685,61.4367675 73.6017685,58.8661249 75.1946944,57.2093446 L93.3075504,38.3704115 C94.981812,36.629035 97.7936375,36.5345941 99.5879385,38.159472 C101.382239,39.7843498 101.479551,42.5132382 99.805289,44.2546147 L84.5211421,60.1514462 L99.5140704,75.7453853 Z" id="Path-3" fill="#222222" fill-rule="nonzero"></path>
            <path d="M127.521142,60.1514462 L142.51407,75.7453853 C144.188332,77.4867618 144.091021,80.2156502 142.29672,81.840528 C140.502419,83.4654059 137.690593,83.370965 136.016332,81.6295885 L118.194694,63.0935478 C116.601769,61.4367675 116.601769,58.8661249 118.194694,57.2093446 L136.30755,38.3704115 C137.981812,36.629035 140.793638,36.5345941 142.587939,38.159472 C144.382239,39.7843498 144.479551,42.5132382 142.805289,44.2546147 L127.521142,60.1514462 Z" id="Path-3-Copy" fill="#222222" fill-rule="nonzero"></path>
            <path d="M109,145 C99.6019621,145 93,134.397533 93,122 C93,109.602467 99.6019621,99 109,99 C118.398038,99 125,109.602467 125,122 C125,134.397533 118.398038,145 109,145 Z M109,136.375 C112.455134,136.375 116.272727,130.24411 116.272727,122 C116.272727,113.75589 112.455134,107.625 109,107.625 C105.544866,107.625 101.727273,113.75589 101.727273,122 C101.727273,130.24411 105.544866,136.375 109,136.375 Z" id="Oval-13" fill="#222222" fill-rule="nonzero"></path>
        </g>
    </g>
</svg>