<svg id="Layer_1" data-name="Layer 1" xmlns="http://www.w3.org/2000/svg" viewBox="0 0 621.57 246.09"><defs><clipPath id="clip-path" transform="translate(.9 .16)"><path class="cls-1" d="M56.86 71.55L11 117.46a28.46 28.46 0 00-6.35 10C0 139.22 0 155.93 0 177.09c0 20.26 0 37.76 4.66 49.63C9.63 239.38 19.58 245 36.89 245c12.06 0 20.32-2.66 26-8.36l23.9-24.52v31H133v-6.48h6.48v-6.48H146v13h26.8v-6.48h6.48v-6.48h6.47v13h25.1v-6.48h6.48v-6.48h6.11l2 13h18.68l1-6.48h5.52l1-6.48h6.9v13h25.29v-6.48h6.48v-6.48h6.48v13h25.1v-6.48h6.48v-6.48h6.1l1.95 13H355l1-6.48h5.52l1-6.48h6.9v13h25.29v-6.48h6.48v-6.48h6.48v13h51.94v-6.48H466v-6.48h7.24v13H500V237h6.48v-6.48H513v-6.82h6.48v-6.48h3.38l.16.7c1.45 6.3 2.16 14.47 2.16 25h26.54v-6.48h6.48v-6.48h6.48v-6.48h6.48V217h6.48v-6.48h6.48V204h6.48v-6.48h6.55c0-13.91-.91-29.95-7.64-43.52a43.28 43.28 0 00-20-20.2l-1.72-.86 1.76-.77c12.67-5.54 13.73-18.76 13.73-31.84 0-6.42-.52-15.79-5-23-4.73-7.72-13.22-11.63-25.22-11.63h-34.5v6.49h-6.48v6.48h-6.48v-13h-52.7v6.49h-6.48v6.48h-6.48v-13H400.5l-.75 6.49H394l-.75 6.48h-5.73l-.46 4h-1.79l-2-17H342v6.49h-6.48v6.48H329v-13h-39.4l-.75 6.49h-5.73l-.75 6.48h-5.73l-.46 4h-1.79l-2-17h-41.3v6.49h-6.48v6.48h-6.47v-13h-26.8v6.49h-6.48v6.48h-6.48v6.48h-6.48v6.63h-6.48v6.48h-6.48V65.67h-26.8v6.49h-6.48v6.48h-6.48v6.48h-3.58l-.2-.63c-4.59-14.32-14.81-20.7-33.15-20.7-11.67 0-19.74 2.47-25.39 7.76m509.67-15.79c16.45 1.47 24.87 9.89 26.34 26.35 1.47-16.46 9.89-24.88 26.35-26.35-16.46-1.47-24.88-9.89-26.35-26.35-1.47 16.46-9.87 24.88-26.34 26.35M557 29.4c7.28 1.8 9.66 4.18 11.46 11.45 1.8-7.27 4.18-9.65 11.46-11.45-7.28-1.8-9.66-4.18-11.46-11.46-1.8 7.28-4.18 9.66-11.46 11.46m34.13-14.73c9.21 1.7 13 5.46 14.67 14.67 1.7-9.21 5.46-13 14.67-14.67-9.21-1.7-13-5.46-14.67-14.67-1.7 9.21-5.46 13-14.67 14.67"/></clipPath><clipPath id="clip-path-2" transform="translate(.9 .16)"><path class="cls-1" d="M-140.1-139.64h900.18v524.7H-140.1z"/></clipPath><linearGradient id="linear-gradient" x1="-140.1" y1="385.07" x2="-139.1" y2="385.07" gradientTransform="matrix(620.5 0 0 -620.5 86930.87 239056.66)" gradientUnits="userSpaceOnUse"><stop offset="0" stop-color="#6868ff"/><stop offset=".22" stop-color="#754bf7"/><stop offset=".56" stop-color="#8625eb"/><stop offset=".83" stop-color="#900ee5"/><stop offset="1" stop-color="#9405e2"/></linearGradient><style>.cls-1{fill:none}.cls-4{clip-path:url(#clip-path-2)}</style></defs><g clip-path="url(#clip-path)"><path fill="url(#linear-gradient)" d="M.9.16h620.5v245.03H.9z"/></g><path d="M453.8 66.58h50.9v22.16h-25.9v31.81h25.9v22.17h-25.9v32h25.9v22.17h-50.9zM85.26 123.92v24.24h8v.91c-.12 17.54-1 29-11 29a8.41 8.41 0 01-6.26-2.33c-4.81-4.82-4.78-17-4.72-37v-7-7c0-20.07-.08-32.18 4.73-37a8.42 8.42 0 016.28-2.36c7.77 0 9.94 6.89 10.65 17.33h24.71c-1.8-24.08-8.33-38-35.36-38-16.93 0-26.63 5.47-31.44 17.74-4.55 11.6-4.55 28.19-4.55 49.2 0 41.9 0 67.14 36 67.14 16.94 0 26.64-5.47 31.45-17.74 4.55-11.6 4.55-28.2 4.55-49.21v-7.9zM158 66.58h-25v130.3h44.44v-22.17H158zm438.17 130H571.4c-.09-27.93-4.36-43.7-25.9-47.06l-1-.16v47.49h-25V66.58h33.6c20.25 0 29.29 10.4 29.29 33.74 0 16.36-2.52 27.38-15 31.73l-2.13.74 2.06.93a42.66 42.66 0 0121.37 20.67c6.51 13.11 7.51 28.63 7.55 42.22m-37.92-90.74c0-12.54-2.44-18.64-7.45-18.64h-6.38v37.28h6.38c7.45 0 7.45-14 7.45-18.64m-166.41 41.71l-9.39-81H342.9v130.3h23.3V101l1.79-.14 14.41 96.05h17.14l14.22-96 1.79.14v95.91H439V66.58h-37.7zm-199.67 49.3h25V66.57h-25zm88.76-49.3l-9.39-81H232v130.3h23.3V101l1.79-.14 14.42 96.05h17.13l14.23-96 1.79.14v95.91h23.49V66.58H290.4z" transform="translate(.9 .16)" fill="#fff"/><path d="M593.77 29.33H592c-1.43 16-9.55 24.1-25.53 25.53v1.79c16 1.43 24.1 9.55 25.53 25.54h1.79c1.43-16 9.54-24.11 25.53-25.54v-1.79c-16-1.43-24.1-9.54-25.53-25.53m-.9 46.83c-2.51-11.16-9.24-17.89-20.4-20.4 11.16-2.51 17.89-9.24 20.4-20.4 2.51 11.16 9.24 17.89 20.4 20.4-11.16 2.51-17.89 9.24-20.4 20.4m-25.27-35.09h1.74c1.73-7 3.85-9.08 10.8-10.8v-1.75c-6.95-1.72-9.07-3.84-10.8-10.79h-1.74c-1.73 7-3.84 9.07-10.8 10.79v1.75c7 1.72 9.07 3.84 10.8 10.8m.87-19.92c1.55 4.46 3.79 6.69 8.24 8.25-4.45 1.55-6.69 3.78-8.24 8.24-1.55-4.46-3.78-6.69-8.24-8.24 4.46-1.56 6.69-3.79 8.24-8.25M606.72-.16H605c-1.63 8.8-5.15 12.32-14 13.94v1.77c8.8 1.63 12.32 5.15 14 14h1.77c1.62-8.8 5.14-12.32 13.95-13.95v-1.82c-8.81-1.62-12.33-5.14-13.95-13.94m-.89 25.63c-1.77-5.84-5-9-10.79-10.8 5.83-1.78 9-5 10.79-10.8 1.78 5.83 5 9 10.8 10.8-5.83 1.78-9 5-10.8 10.8m-55 61.76h-6.38v37.28h6.38c7.45 0 7.45-14 7.45-18.64 0-12.54-2.44-18.64-7.45-18.64m-1.66 35.48h-2.92V96.14c2.49 1.71 3.75 7.13 3.75 16.21a52.65 52.65 0 01-.83 10.36m1.85 0a54.54 54.54 0 00.78-10.34c0-10.83-1.82-16.84-5.55-18.28V89h4.58c3.75 0 5.65 5.67 5.65 16.84 0 11-1.84 16.63-5.46 16.82m39.25 30.9a44.23 44.23 0 00-20.4-20.56c13.12-5.73 14.27-19.24 14.27-32.66 0-15.26-3.23-35.55-31.09-35.55h-35.44v6.49h-6.48v6.47h-4.68v-13H452v6.48h-6.48v6.48h-4.68v-13H399.7l-.7 6.54h-5.73l-.75 6.48h-5.73l-.56 4.79-2.05-17.75h-43v6.48h-6.48v6.48h-4.68v-13h-41.23l-.79 6.52h-5.72l-.76 6.48h-5.72l-.56 4.79-2.06-17.75h-43v6.48h-6.48v6.48H219v-13h-28.6v6.48H184v6.48h-6.48v6.48H171v6.48h-6.48v6.48h-4.68V64.77h-28.6v6.48h-6.48v6.48h-6.48v6.48h-2c-4.33-13.49-13.67-21.32-34-21.32-11.73 0-20.17 2.54-26 8l-45.95 45.94a29.44 29.44 0 00-6.56 10.3C-.9 139.05-.9 155.79-.9 177.09c0 41.45 0 68.84 37.79 68.84 12.16 0 20.77-2.74 26.64-8.63l22.35-22.94V244h48v-6.48h6.48v-6.48h4.68v13h28.6v-6.48h6.48v-6.48h4.67v13h26.9v-6.48h6.48v-6.48h4.44l1.94 13h20.24l1-6.48h5.52l1-6.48h5.22v13h27.09v-6.48h6.48v-6.48h4.68v13h26.9v-6.48h6.48v-6.48h4.43l1.83 12.19.11.77h20.24l1-6.48h5.52l1-6.48h5.22v13h27.09v-6.48h6.4v-6.48h4.68v13h53.74v-6.48h6.48v-6.48h5.44v13h28.6v-6.48h6.48v-6.48h6.48v-6.76h6.48v-6.48h1.76c1.48 6.43 2.14 14.53 2.14 24.75v.9h28.34v-6.48h6.49v-6.48h6.47v-6.48H572v-6.48h6.48v-6.48H585v-6.48h6.48v-6.48H598v-.9c0-14-.92-30.19-7.73-43.92zM513 73.05h4.68v125.63H538v4.68h-25zm-6.48 6.48h4.68v125.63h20.3v4.68h-25zm-52.7-13h50.9v22.21H478.8v31.81h25.9v22.17h-25.9v32h25.9v22.17h-50.9zm50.9 24v28.21H500v-28.2zm-24.1 0h17.62v4.68H480.6zm17.6 6.47v21.73h-4.68V97zm-17.62 0h11.14v4.68H480.6zm11.14 6.48v15.25h-4.68V103.5zm-11.14 0h4.66v4.68h-4.66zm4.66 15.25h-4.66V110h4.66zm19.44 25.77v28.39H500v-28.37zm-24.1 0h17.62v4.68H480.6zm17.62 6.5v21.91h-4.68V151zm-17.62 0h11.14v4.68H480.6zm11.14 6.48v15.43h-4.68v-15.43zm-11.14 0h4.66v4.68h-4.66zm4.66 15.43h-4.66V164h4.66zm-37.94-99.86H452v125.63h46.22v4.68h-50.9zm-6.48 6.48h4.68v125.63h46.22v4.68h-50.9zm-71.4 130.31l-1.67-11.16h.23v-36l6.26 41.71.11.77h12.9l-.69 4.68zm11.35 1.8l-.69 4.68H363l-1.67-11.16h.23v-6.48H366l1.83 12.19.11.77zm-4.87-8.28l-7.92-52.8V113l12.74 84.88.11.77h12.9l-.69 4.68zm13.71 1.8h4.68v13h18.81v4.68h-23.49zm6.48 11.16v-17.64h4.68v13h18.81v4.68zm6.48-6.48v-21.33l4.68-31.58v48.23h18.81v4.68zm6.48-6.48v-58.59l4.68-31.59v85.5h18.81v4.68zm18.81 8.28v-6.48h4.68v13h46.22v4.68h-50.9zm6.48 4.68v-17.64H439v13h46.22v4.68zM394.82 73.05h3.92l-6.83 58.89L390 115zm-6.48 6.48h3.92l-3.21 27.7-2-16.9zm-45.44-13h39.62l9.39 81 9.39-81H439v130.35h-23.45V101l-1.79-.14-14.22 96.05H382.4l-14.41-96-1.79.14v95.91h-23.3zm-6.48 6.48h4.68v125.67h18.62v4.68h-23.3zm-6.48 125.63V79.53h4.68v125.63h18.62v4.68h-23.3zm-71.4 11.16l-1.67-11.16h.22v-36l6.38 42.48h12.9l-.7 4.68zm11.35 1.8l-.7 4.68h-17.13l-1.68-11.16h.23v-6.48h4.44l1.94 13zm-4.89-8.24l-7.93-52.81V113L270 198.68h12.9l-.7 4.68zm13.71 1.8h4.68v13h18.81v4.68h-23.47zm6.48 11.16v-17.64h4.68v13h18.83v4.68zm6.48-6.48v-21.32l4.68-31.6v48.24h18.8v4.68zm6.48-6.48v-58.59l4.68-31.59v85.5h18.81v4.68zm18.85 8.28v-6.48h4.68v13h18.62v4.68H317zm6.48 4.68v-17.64h4.68v13h18.62v4.68zM283.92 73.05h3.92L281 131.94l-2-16.89zm-6.48 6.48h3.92l-3.21 27.7-2-16.9zM232 66.57h39.63l9.39 81 9.39-81h37.74v130.31h-23.5V101l-1.79-.14-14.23 96.05H271.5l-14.42-96-1.79.14v95.91H232zm-6.48 6.48h4.68v125.63h18.62v4.68h-23.3zM219 198.68V79.53h4.67v125.63h18.62v4.68H219zm10.34 19.44v4.68h-23.3v-17.64h4.67v13zm-16.82-1.8v-17.64h4.67v13h18.62v4.68zM192.24 66.57h25v130.31h-25zm-6.48 6.48h4.68v125.63h20.31v4.68h-25zm-6.48 6.48H184v125.63h20.31v4.68h-25zm18.51 132.11v4.68h-25v-17.64h4.68v13zm-6.48 6.48v4.68h-25v-17.64H171v13zM172.8 86h4.68v86.9h-4.68zm-6.48 6.48H171v80.42h-4.68zM159.84 99h4.68v73.94h-4.68zM133 66.57h25v108.14h19.44v22.17H133zm-6.48 6.48h4.68v125.63H171v4.68h-44.44zm-6.48 6.48h4.68v125.63h39.76v4.68h-44.4zm38 132.11v4.68H113.6V185.5a35.38 35.38 0 001.77-3.82 55.41 55.41 0 002.91-11.06v41zm-6.48 6.48v4.68h-44.44v-29.24a25.33 25.33 0 004.68-5.1v29.66zm-38-113.64h4.68v17.64h-4.64zM118.28 86v6.8a67.4 67.4 0 00-1.48-6.8zm-36-21.32c27 0 33.56 13.91 35.36 38H92.9c-.71-10.44-2.9-17.34-10.65-17.34A8.43 8.43 0 0076 87.71c-4.81 4.83-4.78 16.94-4.72 37v14c-.06 20.09-.09 32.22 4.72 37a8.41 8.41 0 006.28 2.37c10.06 0 10.89-11.5 11-29v-.91h-8v-24.25h33v7.9c0 21 0 37.61-4.55 49.21-4.81 12.26-14.51 17.74-31.45 17.74-36 0-36-25.24-36-67.14 0-21 0-37.6 4.55-49.2 4.81-12.27 14.51-17.74 31.44-17.74m-3.47 89.95V130.4h4.68V150h8c-.14 15.86-1.18 23.85-6.24 25.84 1.28-5 1.51-11.94 1.57-20.25v-.91zm-5.35 6.48c-.42-5.8-.41-13.25-.38-22.42v-1.82H77v19.56h8c-.08 9.07-.46 15.54-1.71 19.81a8.19 8.19 0 01-1 .06 8.48 8.48 0 01-2.5-.35c.4-4 .51-8.68.55-13.93v-.91zm5.06 1.8c0 4.77-.17 8.81-.46 12.2a5.35 5.35 0 01-.79-.65c-2.06-2.07-3.12-5.93-3.66-11.55zm-5.45-32.52H77v4.68h-3.95v-4.68m0-1.8v-3.89-.79h10.41v4.68H73.05zm.41-6.48c-.1-1.53-.24-3-.43-4.33 0-6.57.1-12.06.47-16.5 2.84 2 4.18 6.64 4.7 15.31v.84h19.53c.17 1.52.32 3.07.44 4.68H73.46zm6.48-6.48c-.55-8.1-2-14.06-6.24-16.32a33.65 33.65 0 011.06-5.64 8.19 8.19 0 011-.06c5.85 0 8.18 4.32 8.91 16.5v.84h19.48c.17 1.52.32 3.07.44 4.68zm20.7 1.8h4.68v4.68h-4.68zm-14.22-8.28c-.71-10.44-2.88-17.34-10.65-17.34h-.35A9 9 0 0177.25 89a6.71 6.71 0 015-1.84c5.85 0 8.18 4.32 8.91 16.5v.84h19.48c.17 1.52.32 3.07.44 4.68zm20.7 1.8h4.68v11.16h-4.68zM50 79.71c-.32.67-.62 1.35-.9 2.06-4.67 11.92-4.67 28.66-4.67 50 0 41.45 0 68.84 37.79 68.84 7.51 0 13.66-1.06 18.65-3.24-5.56 5.41-13.68 7.92-25.13 7.92-36 0-36-25.24-36-67.14 0-21 0-37.6 4.55-49.2a27.62 27.62 0 015.7-9.2m-6.48 6.48c-.32.67-.62 1.35-.9 2.06C38 100.17 38 116.91 38 138.21c0 41.45 0 68.84 37.79 68.84 7.51 0 13.66-1.06 18.65-3.24-5.56 5.41-13.68 7.92-25.13 7.92-36 0-36-25.24-36-67.14 0-21 0-37.6 4.55-49.2a27.62 27.62 0 015.7-9.2m-6.67 157.94c-36 0-36-25.24-36-67.14 0-21 0-37.6 4.55-49.2a27.77 27.77 0 015.7-9.21c-.31.67-.62 1.36-.9 2.07-4.67 11.92-4.67 28.66-4.67 50 0 41.45 0 68.84 37.79 68.84 7.51 0 13.66-1 18.65-3.24-5.56 5.41-13.68 7.92-25.13 7.92m6.48-6.48c-36 0-36-25.24-36-67.14 0-21 0-37.6 4.55-49.2a27.77 27.77 0 015.7-9.21c-.31.67-.62 1.36-.9 2.07-4.67 11.92-4.67 28.66-4.67 50 0 41.45 0 68.84 37.79 68.84 7.51 0 13.66-1.05 18.65-3.24-5.56 5.41-13.68 7.92-25.13 7.92m6.48-6.48c-36 0-36-25.24-36-67.14 0-21 0-37.6 4.55-49.2a27.77 27.77 0 015.7-9.21c-.31.67-.62 1.36-.9 2.07-4.67 11.92-4.67 28.66-4.67 50 0 41.45 0 68.84 37.79 68.84 7.51 0 13.66-1.05 18.65-3.24-5.56 5.41-13.68 7.92-25.13 7.92m6.48-6.48c-36 0-36-25.24-36-67.14 0-21 0-37.6 4.55-49.2a27.77 27.77 0 015.7-9.21c-.31.67-.62 1.36-.9 2.07C25 113.13 25 129.87 25 151.17 25 192.62 25 220 62.81 220c7.51 0 13.66-1.06 18.65-3.24-5.56 5.41-13.68 7.92-25.13 7.92m6.48-6.48c-36 0-36-25.24-36-67.14 0-21 0-37.6 4.55-49.2a27.77 27.77 0 015.7-9.21c-.31.67-.62 1.36-.9 2.07-4.67 11.92-4.67 28.66-4.67 50 0 41.45 0 68.84 37.79 68.84 7.51 0 13.66-1.06 18.65-3.24-5.56 5.41-13.68 7.92-25.13 7.92m69.31 24H87.68V213a25.39 25.39 0 004.68-5.11v29.68h39.76zm6.48-6.48H94.16v-29.25a25.39 25.39 0 004.68-5.11v29.68h39.76zm6.48-6.48h-44.43V200a25.33 25.33 0 004.68-5.1v29.7h39.76zm26.8 13h-25V224.6h4.68v13h20.32zm6.48-6.48h-25v-17.68H158v13h20.32zm6.47-6.48h-25v-17.68h4.68v13h20.31zm25.1 13h-23.3V224.6h4.67v13h18.62zm6.48-6.48h-23.3v-17.72h4.67v13h18.62zm6.48-6.48h-23.3v-17.72h4.67v13h18.62zm20.38 13h-17.12l-1.67-11.16h.22v-6.6h4.44l1.94 13H244zm6.48-6.48h-17.12L231 224.6h.22v-6.48h4.44l1.94 13h12.9zm6.48-6.48H239.1l-1.68-11.16h.23v-6.48h4.44l1.94 13h12.9zm-10.65-6.48l-1.68-11.16h.23v-6.48h4.44l1.94 13h12.9l-.7 4.68zm37.2 19.44h-23.48V224.6H264v13h18.81zm6.48-6.48h-23.48v-17.76h4.68v13h18.81zm6.48-6.48h-23.48v-17.76h4.68v13h18.81zm25.1 13h-23.3v-17.8h4.68v13h18.62zm6.48-6.48H304v-17.8h4.68v13h18.62zm6.48-6.48H310.5v-17.8h4.67v13h18.63zm20.38 13H337l-1.67-11.16h.23v-6.68H340l1.83 12.19.11.77h12.9zm6.48-6.48h-17.13l-1.67-11.16h.23v-6.48h4.43l1.83 12.19.11.77h12.9zm6.48-6.48H350l-1.67-11.16h.23v-6.48H353l1.83 12.19.11.77h12.9zM356.47 223l-1.67-11.16h.2v-6.48h4.43l1.83 12.19.11.77h12.9l-.69 4.68zm37.2 19.44h-23.48V224.6h4.68v13h18.81zm6.48-6.48h-23.48v-17.84h4.68v13h18.81zm6.48-6.48h-23.48v-17.84h4.68v13h18.81zm51.94 13h-50.13V224.6h4.68v13h45.46zm6.48-6.48h-50.13v-17.88h4.68v13h45.46zm7.24-6.48H421.4v-17.88h4.68v13h46.22zm26.8 13h-25V224.6h4.68v13h20.33zm6.48-6.48h-25v-17.92h4.68v13h20.32zm6.48-6.48h-25v-17.92h4.68v13h20.32zm6.48-6.48h-25v-17.92h4.68v13h20.32zM500 216.32v-17.64h4.68v13H525v4.68zM550.78 242H526c0-9.31-.54-17.25-2-23.85h2.77v-6.48h1.76c1.48 6.42 2.14 14.53 2.14 24.75v.9h20.06zm6.48-6.48h-24.74c0-9.32-.54-17.25-2-23.85h2.77v-6.48h1.77c1.48 6.43 2.13 14.53 2.13 24.75v.9h20.06zm6.48-6.48H539c0-9.31-.54-17.25-2-23.85h2.77v-6.48h1.75c1.49 6.42 2.15 14.52 2.15 24.75v.9h20.06zm6.48-6.48h-24.74c0-9.32-.55-17.25-2-23.85h2.78v-12.38c2.75 7.11 3.9 17 3.9 30.62v.9h20.06zm6.48-6.48H552c-.05-14.84-1.31-26.22-5.7-34.15v-11.79c7.53 6.55 10.38 18.81 10.38 40.33v.9h20.02zm6.48-6.48h-24.74c-.07-20.5-2.43-34.42-12.18-41.71v-8.08c12.43 4.91 16.86 17.36 16.86 44.21v.9h20.06zm6.48-6.48h-24.74c-.08-24.45-3.38-39.58-18.66-45.21v-6.37c17.42 3.11 23.34 14.92 23.34 46v.9h20.06zm-18.26-6.48c-.09-27.93-4.36-43.71-25.9-47.06l-1-.16v47.49h-25V66.57h33.6c20.25 0 29.29 10.41 29.29 33.75 0 16.36-2.52 27.38-15 31.73l-2.13.74 2.06.93a42.68 42.68 0 0121.38 20.67c6.5 13.11 7.5 28.63 7.54 42.22z" transform="translate(.9 .16)" fill="#262626"/></svg>