<svg width="276" height="276" viewBox="0 0 276 276" xmlns="http://www.w3.org/2000/svg"><title>1</title><desc>Created with Sketch.</desc><g fill="none"><path fill="#2AB3B9" d="M0 0h276v276h-276z"/><g><path fill="#FCF3B0" d="M51.625 157.424h122.252l51.63 41.955h-123.852z"/><path stroke="#222" stroke-width="3" stroke-linecap="round" stroke-linejoin="round" d="M51.625 157.424h122.252l51.63 41.955h-123.852z"/><path fill="#FCF3B0" d="M75.505 164.098h90.412l34.119 26.135h-92.014z"/><path stroke="#222" stroke-width="3" stroke-linecap="round" stroke-linejoin="round" d="M75.505 164.098h90.412l34.119 26.135h-92.014z"/><path fill="#FCF3B0" d="M51.625 82.927h124.001v74.498h-124.001z"/><path stroke="#222" stroke-width="3" stroke-linecap="round" stroke-linejoin="round" d="M51.625 82.927h124.001v74.498h-124.001z"/><path fill="#fff" d="M60.115 91.491h107.02v58.404h-107.02z"/><path stroke="#222" stroke-width="3" stroke-linejoin="round" d="M60.115 91.491h107.02v58.404h-107.02z"/><g><path d="M97.64 164.098l32.436 26.135" fill="#fff"/><path d="M97.64 164.098l32.436 26.135" stroke="#222" stroke-width="3" stroke-linejoin="round"/></g><g><path d="M119.96 164.098l32.436 26.135" fill="#fff"/><path d="M119.96 164.098l32.436 26.135" stroke="#222" stroke-width="3" stroke-linejoin="round"/></g><g><path d="M143.538 164.098l32.436 26.135" fill="#fff"/><path d="M143.538 164.098l32.436 26.135" stroke="#222" stroke-width="3" stroke-linejoin="round"/></g><path d="M86.314 171h91.022-91.022z" fill="#fff"/><path d="M84.313 171h91.024" stroke="#222" stroke-width="3" stroke-linejoin="round"/><path d="M97.64 181h91.794-91.794z" fill="#fff"/><path d="M96.64 181h91.36" stroke="#222" stroke-width="3" stroke-linejoin="round"/><path d="M68.122 99h8.974-8.974z" fill="#fff"/><path d="M68.122 99h8.974" stroke="#222" stroke-width="3" stroke-linecap="round" stroke-linejoin="round"/><path d="M68.122 109h20.961-20.961z" fill="#fff"/><path d="M68.122 109h20.961" stroke="#222" stroke-width="3" stroke-linecap="round" stroke-linejoin="round"/><path d="M68.122 118h48.82-48.82z" fill="#fff"/><path d="M68.122 118h48.82" stroke="#222" stroke-width="3" stroke-linecap="round" stroke-linejoin="round"/><path d="M113.625 109h21.094-21.094z" fill="#fff"/><path d="M113.626 109h21.094" stroke="#222" stroke-width="3" stroke-linecap="round" stroke-linejoin="round"/><path d="M142.272 109h11.816-11.816z" fill="#fff"/><path d="M142.272 109h11.816" stroke="#222" stroke-width="3" stroke-linecap="round" stroke-linejoin="round"/><path d="M96.243 109h9.986-9.986z" fill="#fff"/><path d="M96.243 109h9.988" stroke="#222" stroke-width="3" stroke-linecap="round" stroke-linejoin="round"/><path d="M84.838 99h4.246-4.246z" fill="#fff"/><path d="M84.838 99h4.245" stroke="#222" stroke-width="3" stroke-linecap="round" stroke-linejoin="round"/><path d="M95.517 99h21.426-21.426z" fill="#fff"/><path d="M95.517 99h21.425" stroke="#222" stroke-width="3" stroke-linecap="round" stroke-linejoin="round"/></g><path d="M45.86 34.192c3.296 0 4.768-1.824 4.768-4.736v-7.296h-2.56v7.248c0 1.728-.64 2.672-2.176 2.672-1.552 0-2.208-.96-2.208-2.672v-7.248h-2.608v7.312c0 2.896 1.488 4.72 4.784 4.72zm10.128-.016c1.968 0 3.76-.816 3.76-2.88 0-1.936-1.776-2.32-3.456-2.608-1.056-.192-1.52-.4-1.52-.912 0-.464.416-.752 1.152-.752.8 0 1.648.336 2.512.928l1.008-1.456c-.944-.752-2-1.2-3.744-1.2-1.904 0-3.312.992-3.312 2.704 0 2 1.728 2.384 3.344 2.672 1.168.208 1.616.432 1.616 1.024 0 .56-.56.832-1.36.832-1.04 0-2.192-.432-2.96-1.104l-1.024 1.44c.864.736 2.112 1.312 3.984 1.312zm9.072 0c1.488 0 2.72-.432 3.712-1.28l-.992-1.536c-.576.528-1.52 1.024-2.528 1.024-1.072 0-1.856-.544-1.984-1.952h5.648v-.384c0-3.872-2.16-4.752-3.92-4.752-1.76 0-4.288 1.136-4.288 4.448 0 3.296 2.128 4.432 4.352 4.432zm-1.76-5.264c.192-1.248.88-1.776 1.68-1.776.96 0 1.504.576 1.632 1.776h-3.312zm14.992 5.2c.56 0 1.504-.08 1.696-.128v-1.84c-.176.064-.56.096-.848.096-.928 0-1.184-.288-1.184-1.2v-3.696h2.192v-1.872h-2.192v-2.928h-2.56v2.928h-1.424v1.872h1.424v4.256c0 1.6.368 2.512 2.896 2.512zm3.248-.112h2.576v-5.728c.576-.496 1.168-.848 1.872-.848.704 0 .992.4.992 1.168v5.408h2.576v-6.224c0-1.76-1.04-2.48-2.496-2.48-1.488 0-2.432.848-2.944 1.52v-4.656h-2.576v11.84zm13.776.176c1.488 0 2.72-.432 3.712-1.28l-.992-1.536c-.576.528-1.52 1.024-2.528 1.024-1.072 0-1.856-.544-1.984-1.952h5.648v-.384c0-3.872-2.16-4.752-3.92-4.752-1.76 0-4.288 1.136-4.288 4.448 0 3.296 2.128 4.432 4.352 4.432zm-1.76-5.264c.192-1.248.88-1.776 1.68-1.776.96 0 1.504.576 1.632 1.776h-3.312zm16.24 5.28c3.296 0 4.768-1.824 4.768-4.736v-7.296h-2.56v7.248c0 1.728-.64 2.672-2.176 2.672-1.552 0-2.208-.96-2.208-2.672v-7.248h-2.608v7.312c0 2.896 1.488 4.72 4.784 4.72zm7.008-.192h2.56v-4.464h1.504l2.464 4.464h2.752l-2.64-4.8c1.584-.48 2.464-1.504 2.464-3.376 0-2.624-1.744-3.664-4.656-3.664h-4.448v11.84zm2.56-6.48v-3.232h1.776c1.504 0 2.224.432 2.224 1.6 0 1.2-.72 1.632-2.224 1.632h-1.776zm8.72 6.48h7.824v-2.112h-5.216v-9.728h-2.608v11.84zm13.52-9.696h2.592v-2.064h-2.592v2.064zm.016 9.696h2.56v-8.528h-2.56v8.528zm4.624 0h2.576v-5.728c.576-.496 1.168-.848 1.856-.848.72 0 1.008.4 1.008 1.168v5.408h2.56v-6.224c0-1.76-1.04-2.48-2.48-2.48-1.488 0-2.432.848-2.944 1.52v-1.344h-2.576v8.528zm15.52 3.264c1.712 0 2.496-.896 3.072-2.368l3.584-9.424h-2.496l-1.888 5.536h-.032l-1.872-5.536h-2.656l3.264 8.576-.16.416c-.208.528-.528.736-1.088.736-.768 0-1.376-.16-1.616-.224l-.544 1.984c.448.128 1.168.304 2.432.304zm11.52-3.088c2.064 0 4.352-1.12 4.352-4.432 0-3.344-2.288-4.448-4.352-4.448-2.08 0-4.368 1.104-4.368 4.448 0 3.312 2.304 4.432 4.368 4.432zm0-1.808c-1.312 0-1.792-1.184-1.792-2.608 0-1.536.56-2.576 1.792-2.576 1.28 0 1.776 1.152 1.776 2.576 0 1.552-.56 2.608-1.776 2.608zm8.256 1.808c1.488 0 2.432-.848 2.944-1.504v1.328h2.576v-8.528h-2.576v5.792c-.576.496-1.168.864-1.856.864-.72 0-1.008-.416-1.008-1.184v-5.472h-2.576v6.224c0 1.76 1.04 2.48 2.496 2.48zm7.472-.176h2.576v-5.296c.48-.624 1.248-1.168 2.272-1.168.16 0 .576.032.672.048l.032-2.288h-.08c-1.6 0-2.416.88-2.88 1.6h-.016v-1.424h-2.576v8.528zm14.8.176c2.256 0 3.312-1.264 3.856-2.592l-2.128-.736c-.368 1.152-.992 1.52-1.68 1.52-1.184 0-1.664-1.088-1.664-2.608 0-1.696.656-2.576 1.696-2.576.752 0 1.248.352 1.584 1.44l2.16-.72c-.496-1.376-1.392-2.608-3.712-2.608-1.888 0-4.304 1.04-4.304 4.448 0 3.312 2.192 4.432 4.192 4.432zm9.056 0c2.064 0 4.352-1.12 4.352-4.432 0-3.344-2.288-4.448-4.352-4.448-2.08 0-4.368 1.104-4.368 4.448 0 3.312 2.304 4.432 4.368 4.432zm0-1.808c-1.312 0-1.792-1.184-1.792-2.608 0-1.536.56-2.576 1.792-2.576 1.28 0 1.776 1.152 1.776 2.576 0 1.552-.56 2.608-1.776 2.608zm8.656 1.76c1.264 0 2.064-.64 2.624-1.408 0 .432.08 1.072.192 1.28h2.64c-.192-.432-.256-1.056-.256-2.08v-9.76h-2.576v4.384c-.608-.832-1.44-1.248-2.592-1.248-1.952 0-3.312 1.568-3.312 4.512 0 2.944 1.344 4.32 3.28 4.32zm.96-1.936c-1.152 0-1.664-.976-1.664-2.4 0-1.552.56-2.368 1.632-2.368.672 0 1.136.256 1.696.784v3.152c-.416.432-1.008.832-1.664.832zm10.096 1.984c1.488 0 2.72-.432 3.712-1.28l-.992-1.536c-.576.528-1.52 1.024-2.528 1.024-1.072 0-1.856-.544-1.984-1.952h5.648v-.384c0-3.872-2.16-4.752-3.92-4.752-1.76 0-4.288 1.136-4.288 4.448 0 3.296 2.128 4.432 4.352 4.432zm-1.76-5.264c.192-1.248.88-1.776 1.68-1.776.96 0 1.504.576 1.632 1.776h-3.312z" fill="#fff"/></g></svg>