<?xml version="1.0" encoding="UTF-8"?>
<svg width="150px" height="114px" viewBox="0 0 150 114" version="1.1" xmlns="http://www.w3.org/2000/svg" xmlns:xlink="http://www.w3.org/1999/xlink">
    <!-- Generator: Sketch 55.2 (78181) - https://sketchapp.com -->
    <title>teams</title>
    <desc>Created with Sketch.</desc>
    <g id="teams" stroke="none" stroke-width="1" fill="none" fill-rule="evenodd">
        <path d="M104.861495,0.479696791 C99.5051218,-0.342615209 90.3773498,-1.21728441 82.6445058,8.06245409 C74.911662,17.3421926 66.8333609,23.463848 56.1324106,26.7222061 C45.4314603,29.9805642 28.8327878,32.5623143 17.4041868,36.7389513 C5.97558582,40.9155882 -1.80203948,58.9873912 -0.933987681,74.1244323 C-0.0659358814,89.2614723 5.66909952,118.495354 28.117639,124.443325 C50.5661785,130.391296 55.7572579,120.646638 67.6391265,113.786638 C79.5209948,106.926638 97.0083378,112.393492 110.031107,108.955145 C123.053876,105.516797 134.961963,98.3684203 138.660293,89.1084703 C142.358623,79.8485203 144.747893,72.2642993 140.934489,59.3084871 C139.141676,53.2175131 134.018563,43.6067282 126.686377,36.3647618 C119.354191,29.1227953 120.256244,15.6351881 118.104034,10.4845262 C115.878077,5.15737209 110.217867,1.30200889 104.861495,0.479696791 Z" id="teams-mask" fill="#8AABFF" fill-rule="nonzero" transform="translate(70.934869, 63.144221) rotate(-150.000000) translate(-70.934869, -63.144221) "></path>
        <g id="Group-3" transform="translate(-2.000000, 10.000000)">
            <g id="Group" transform="translate(40.932755, 69.622080) rotate(2.000000) translate(-40.932755, -69.622080) translate(1.432755, 35.122080)">
                <g id="hand-back" transform="translate(0.980994, 12.632058)" fill-rule="nonzero">
                    <path d="M45.8832455,10.9864299 C45.984009,11.2496606 46.7530695,11.2641034 47.2932431,11.4151066 C48.0521883,11.6272666 48.6635504,11.964019 48.9963532,12.3707763 C49.9416185,13.5260956 49.5915551,15.2297798 48.9963532,16.3996516 C48.0424475,18.2745573 42.5853748,25.8503209 42.5853748,28.0431758 C42.5853748,30.2360308 41.9719119,32.2868293 41.015523,33.8452231 C40.059134,35.4036169 33.0988809,40.7759664 30.1761392,41.6353913 C27.2533976,42.4948161 21.4883673,42.4948161 19.8621693,43.0931315 C18.7780373,43.4920085 14.7988527,47.7159409 7.92461545,55.7649288 C6.51018624,54.1490287 5.10307215,52.2181349 3.70327318,49.9722474 C2.3034742,47.7263599 1.22502177,44.6278633 0.467915867,40.6767575 C17.5186548,22.5874972 26.7327101,12.8881382 28.1100817,11.5786805 C29.4874534,10.2692229 35.1119153,8.52357711 44.9834674,6.34174328 C45.4488324,9.08687244 45.7487584,10.6351013 45.8832455,10.9864299 Z" id="Path-14" fill="#FFB5B5"></path>
                    <path d="M3.00767629,42.9800971 C20.3361681,21.0322261 29.5296036,9.52265336 30.5879828,8.45137872 C31.6463621,7.38010408 37.2988581,5.57904604 47.5454707,3.04820459" id="Path-13" stroke="#000000" stroke-width="1.7" stroke-linecap="round" transform="translate(25.276573, 23.014151) rotate(6.000000) translate(-25.276573, -23.014151) "></path>
                </g>
                <g id="post-its" transform="translate(59.324856, 18.559844) rotate(-8.000000) translate(-59.324856, -18.559844) translate(42.324856, 2.559844)" fill-rule="nonzero">
                    <rect id="Rectangle" stroke="#000000" stroke-width="1.7" fill="#FFFCE5" x="-4.54747351e-13" y="0.210206897" width="33.7082084" height="31.5706147"></rect>
                    <g id="Group-15" transform="translate(6.170948, 5.653944)">
                        <g id="plot" transform="translate(0.793180, 0.704225)">
                            <polyline id="Path-9" stroke="#000000" stroke-linecap="round" points="2.79685518 -4.54747351e-13 4.96269343 11.8849352 0.657721139 22.0995685"></polyline>
                            <path d="M4.96269343,11.8849352 L18.2688182,12.4087856" id="Path-10" stroke="#000000" stroke-linecap="round"></path>
                            <path d="M4.96269343,11.8849352 L20.8530974,2.58083925" id="Path-11" stroke="#000000"></path>
                            <path d="M17.982598,2.20701111 L21.2602678,2.20701111 C21.3202987,2.20701111 21.3689634,2.25567581 21.3689634,2.31570676 C21.3689634,2.3322753 21.3651757,2.34862458 21.3578898,2.36350517 L20.0006706,5.13544829" id="Path-12" stroke="#000000" stroke-linecap="round"></path>
                            <ellipse id="Oval" fill="#83FFCD" cx="8.78184559" cy="4.88303133" rx="1.44896632" ry="1.46421859"></ellipse>
                            <ellipse id="Oval-Copy" fill="#FCF3B0" cx="14.9981479" cy="9.90371478" rx="1.13413127" ry="1.14606949"></ellipse>
                            <ellipse id="Oval-Copy-2" fill="#C454FF" cx="1.26739722" cy="11.4482148" rx="1" ry="1"></ellipse>
                            <ellipse id="Oval-Copy-5" fill="#DC352C" cx="7.33287928" cy="17.528418" rx="1.28970264" ry="1.30327846"></ellipse>
                        </g>
                    </g>
                </g>
                <path d="M40.7442801,28.5437033 L33.5098322,31.0302545" id="Path-27" stroke="#000000" stroke-width="1.7" stroke-linecap="round" fill-rule="nonzero"></path>
                <g id="Group-20" transform="translate(1.426667, 18.973802)">
                    <g id="Group-20-Copy"></g>
                    <path d="M40.6270681,10.0167126 C42.5259505,5.77971706 44.6791596,4.44820081 47.0866954,6.02216384 C49.4942312,7.59612686 47.7639516,11.8458886 41.8958567,18.7714491 L40.6270681,10.0167126 Z" id="Path-3" fill="#FFB5B5" fill-rule="nonzero"></path>
                    <path d="M29.3261676,18.7306155 C32.2071821,17.7244516 34.0190709,16.7762314 34.7618339,15.8859549 C35.8759785,14.5505402 41.8813957,6.20663011 43.1025914,5.40317413 C44.323787,4.59971815 46.0296309,4.10983852 47.5693878,5.03492638 C49.1091447,5.96001425 49.504586,7.98099175 48.5506802,9.85589743 C47.5967745,11.7308031 42.1397017,19.3065667 42.1397017,21.4994217 C42.1397017,23.6922766 41.5262389,25.7430751 40.5698499,27.301469 C39.613461,28.8598628 32.6532078,34.2322122 29.7304662,35.0916371 C26.8077245,35.951062 21.0426943,35.951062 19.4164963,36.5493774 C18.3323643,36.9482543 14.3531797,41.1721867 7.47894242,49.2211746" id="Path-14" stroke="#000000" stroke-width="1.7" stroke-linecap="round" fill-rule="nonzero"></path>
                </g>
            </g>
            <g id="hand-progress-bar-2" transform="translate(48.207105, 0.000000)" fill-rule="nonzero">
                <g id="hand-progress-bar">
                    <g id="Group-21" transform="translate(34.301237, 0.000000)">
                        <path d="M48.0118887,0.734245344 L22.4583459,14.2958985 L19.6874033,19.1106129 L11.476803,14.2958985 C9.39406873,12.8184169 7.83630782,12.8184169 6.8035203,14.2958985 C5.77073278,15.7733801 5.93889513,17.1980947 7.30800736,18.5700423 C5.26073198,17.8543205 3.84069089,17.5802237 3.0478841,17.7477517 C2.2550773,17.9152797 1.44647903,18.3695668 0.622089278,19.1106129 C0.188631862,19.9536177 0.385465795,20.9382666 1.21259108,22.0645596 C2.03971636,23.1908525 4.07152179,25.0200744 7.30800736,27.5522251 L7.30800736,28.6820174 C5.27092805,28.2215093 3.64733855,28.1063823 2.43723884,28.3366363 C1.22713913,28.5668904 0.449751633,29.6063145 0.105076344,31.4549086 C1.62105653,34.1970617 2.60199245,35.5681383 3.0478841,35.5681383 C3.71672157,35.5681383 9.31473831,38.089323 11.476803,38.0287997 C13.6388677,37.9682763 27.2439098,34.4979237 31.3140078,30.9127609 C34.0274065,28.5226523 35.3157361,25.9570516 35.1789968,23.2159587 L55.575862,13.4894522 C55.3953772,10.0854381 54.6979062,7.37953649 53.4834489,5.37174729 C52.2689915,3.3639581 50.4451382,1.81812411 48.0118887,0.734245344 Z" id="Path-24" fill="#DBAFF2"></path>
                        <g id="Group-11" transform="translate(0.000000, 1.569333)" stroke="#000000">
                            <path d="M54.9605278,12.1007738 L35.1789968,21.6466254 C33.3954496,26.1944873 31.7866466,28.940804 30.3525878,29.8855753 C29.0740233,30.7279055 25.5306804,32.6548758 20.8573657,34.3200214 C17.6681817,35.4563574 14.0114761,36.8092128 9.95829135,36.2811335 C-0.0342834886,34.9792259 -1.36673125,28.7057688 1.30754148,27.112684 C3.09038997,26.0506276 5.09054526,26.0506276 7.30800736,27.112684" id="Path-4" stroke-width="1.7" stroke-linecap="round"></path>
                            <path d="M44.6290564,0 C31.9084877,7.02559615 24.7663971,11.0941788 23.2027845,12.2057479 C20.8573657,13.8731015 17.8832151,20.7007806 17.224654,21.8895149 C17.0577151,22.1908477 16.6778418,22.574366 16.3745934,22.9349708 C15.9390238,23.452924 15.4002139,23.7476319 14.9600766,23.9928067 C14.5199393,24.2379815 12.0350935,24.2122101 9.44906132,24.6143979 C8.08436862,24.8266391 7.30800736,25.774988 7.30800736,26.7488026 C7.30800736,29.2853951 8.28085122,29.8855753 11.3533541,29.8855753 C14.425857,29.8855753 17.8771904,29.6144129 20.5399875,27.9056694 C22.3151855,26.7665071 24.2382006,25.1856287 26.3090327,23.1630344" id="Path-2" stroke-width="0.558035714"></path>
                            <path d="M7.30800736,25.9828917 L4.07040024,23.675253 C0.358509657,20.6284479 -0.773406824,18.4013136 0.674650794,16.9938499 C2.84673722,14.8826545 7.96680899,17.4069879 9.4097411,18.5416499 C10.3716958,19.2980912 12.5904244,20.8172496 16.0659267,23.099125" id="Path-6" stroke-width="1.5" stroke-linecap="round"></path>
                            <path d="M7.98900904,17.5412795 C5.74451875,15.3694712 5.51751819,13.5909606 7.30800736,12.2057479 C9.09849653,10.8205351 13.0305072,12.4092329 19.1040393,16.9718414" id="Path-7" stroke-width="1.7" stroke-linecap="round"></path>
                        </g>
                    </g>
                    <g id="progress-bar" transform="translate(0.424129, 22.546479)">
                        <rect id="Rectangle-Copy-47" fill="#FFFFFF" x="1.45431158" y="0.154235762" width="47.3537306" height="7.3" rx="3.65"></rect>
                        <rect id="Rectangle" stroke="#000000" stroke-width="1.7" stroke-linecap="round" x="1.13686838e-13" y="0.142666667" width="49.030291" height="7.33635603" rx="3"></rect>
                        <path d="M3.66817801,0.421684524 C1.79639654,0.421684524 0.279017857,1.93906321 0.279017857,3.81084468 C0.279017857,5.68262615 1.79639654,7.20000484 3.66817801,7.20000484 L11.8534801,7.20000484 C12.9535427,7.20000484 13.9851748,6.66608934 14.6204288,5.76798574 L16.118738,3.64972001 C16.3631665,3.30415417 16.4944222,2.89129483 16.4944222,2.46802064 C16.4944222,1.33786041 15.5782463,0.421684524 14.4480861,0.421684524 L3.66817801,0.421684524 Z" id="Rectangle-Copy-6" stroke="#000000" stroke-width="0.558035714" fill="#FFADCA"></path>
                        <path d="M10.4108349,0.421684524 L6.29596027,7.20000484 L19.4076934,7.20000484 L24.202191,0.421684524 L10.4108349,0.421684524 Z" id="Rectangle-Copy-16" stroke="#000000" stroke-width="0.558035714" fill="#FF6A62"></path>
                        <path d="M17.084259,0.421684524 L12.9693843,7.20000484 L26.0811175,7.20000484 L30.875615,0.421684524 L17.084259,0.421684524 Z" id="Rectangle-Copy-18" stroke="#000000" stroke-width="0.558035714" fill="#FFADCA"></path>
                        <path d="M17.084259,0.421684524 L12.9693843,7.20000484 L26.0811175,7.20000484 L30.875615,0.421684524 L17.084259,0.421684524 Z" id="Rectangle-Copy-48" stroke="#000000" stroke-width="0.558035714" fill="#FFADCA"></path>
                        <path d="M24.2947075,0.421684524 L20.1798328,7.20000484 L33.291566,7.20000484 L38.0860635,0.421684524 L24.2947075,0.421684524 Z" id="Rectangle-Copy-49" stroke="#000000" stroke-width="0.558035714" fill="#FFADCA"></path>
                        <path d="M23.1011286,0.421684524 L18.986254,7.20000484 L26.0811175,7.20000484 L30.875615,0.421684524 L23.1011286,0.421684524 Z" id="Rectangle-Copy-19" stroke="#000000" stroke-width="0.558035714" fill="#FF6A62"></path>
                        <g id="Group-2" transform="translate(6.192676, 0.130940)" stroke="#000000" stroke-linecap="round" stroke-width="1.5">
                            <path d="M-4.46309656e-14,7.34808306 L4.33481771,3.10862447e-14" id="Path-29"></path>
                            <path d="M6.62049305,7.34808306 L10.9553108,3.10862447e-14" id="Path-29-Copy"></path>
                            <path d="M13.2409861,7.34808306 L17.5758038,3.10862447e-14" id="Path-29-Copy-2"></path>
                            <path d="M19.8614791,7.34808306 L24.1962969,3.10862447e-14" id="Path-29-Copy-3"></path>
                            <path d="M26.959746,7.34808306 L31.2945637,3.10862447e-14" id="Path-29-Copy-4"></path>
                        </g>
                    </g>
                    <g id="Group-23" transform="translate(41.609245, 0.000000)">
                        <path d="M8.62421626,25.9410584 C5.99630965,25.3273301 -1.13686838e-13,25.2739372 -1.13686838e-13,28.6820174 C-1.13686838e-13,30.9540709 3.50407626,31.7724222 10.5122288,31.1370713 C11.1551393,26.8261426 11.2718765,24.3806905 10.8624403,23.8007152 C10.5233399,23.3203721 9.24743145,26.0866057 8.62421626,25.9410584 Z" id="Path-25" fill="#DBAFF2"></path>
                        <path d="M40.1875267,0.862295771 C25.5559729,8.35925029 17.4583897,12.6635121 15.8947772,13.7750812 C13.5493583,15.4424348 10.5752077,22.2701139 9.91664663,23.4588482 C9.74970771,23.760181 9.36983443,24.1436994 9.06658603,24.5043042 C8.63101645,25.0222573 8.09220656,25.3169652 7.65206926,25.56214 C7.21193197,25.8073149 4.72708614,25.7815434 2.14105396,26.1837312 C0.776361264,26.3959724 0,27.3443214 0,28.3181359 C0,30.8547284 0.972843863,31.4549086 4.04534676,31.4549086 C7.11784965,31.4549086 10.569183,31.1837463 13.2319801,29.4750028 C15.0071782,28.3358404 16.9301932,26.7549621 19.0010254,24.7323677" id="Path-2-Copy" stroke="#000000" stroke-width="1.7" stroke-linecap="round"></path>
                    </g>
                </g>
            </g>
            <g id="hand-arrow" transform="translate(112.576621, 72.428391) rotate(-5.000000) translate(-112.576621, -72.428391) translate(79.576621, 41.928391)" fill-rule="nonzero">
                <g id="Group-24" transform="translate(15.248182, 23.065098)">
                    <path d="M47.5716821,21.1853878 C39.6158781,18.1714949 35.244248,16.362639 34.4567919,15.7588203 C33.2756078,14.8530921 19.9025836,0.540231549 17.7873027,0.081361695 C15.6720217,-0.377508159 9.04461608,1.22927105 5.83517789,1.79015699 C3.69555243,2.16408095 2.19191929,3.38341985 1.32427846,5.44817368 C0.400638732,7.45423454 -0.214645966,10.7167725 0.0701189728,15.2357877 C0.0701189728,16.6289854 1.14034191,18.0166998 2.53353962,18.0166998 C3.92673733,18.0166998 4.98625905,17.2219644 5.28989642,15.2357877 C5.49232134,13.9116699 5.477486,12.9608922 5.59045254,12.0668586 L9.66605438,18.5375444 C16.4588942,23.6052543 20.274633,26.1391093 21.1132707,26.1391093 C21.9519084,26.1391093 26.2602217,26.1373562 34.0382107,26.1338501 L45.8748186,34.3355648 C46.8244607,32.2554774 47.4208117,30.3076559 47.6638714,28.4921 C47.9069312,26.6765442 47.8762014,24.2409734 47.5716821,21.1853878 Z" id="Shape-Copy" fill="#C0FFE6"></path>
                    <path d="M10.3053908,6.4434458 C11.4412638,5.76257885 12.3853545,5.42214537 13.1376628,5.42214537" id="Path-8" stroke="#000000" stroke-width="1.7" stroke-linecap="round"></path>
                    <path d="M47.0250801,21.1230385 C39.4336774,18.1507118 35.244248,16.362639 34.4567919,15.7588203 C33.2756078,14.8530921 19.9025836,0.540231549 17.7873027,0.081361695 C15.6720217,-0.377508159 9.04461608,1.22927105 5.83517789,1.79015699 C3.69555243,2.16408095 2.19191929,3.38341985 1.32427846,5.44817368 C0.400638732,7.45423454 -0.214645966,10.7167725 0.0701189728,15.2357877 C0.0701189728,16.6289854 1.14034191,18.0166998 2.53353962,18.0166998 C3.92673733,18.0166998 4.98625905,17.2219644 5.28989642,15.2357877 C5.49232134,13.9116699 5.477486,12.9608922 5.59045254,12.0668586" id="Shape" stroke="#000000" stroke-width="1.7" stroke-linecap="round"></path>
                </g>
                <g id="arrow" transform="translate(16.538557, 18.537902) rotate(14.000000) translate(-16.538557, -18.537902) translate(4.038557, 3.537902)" fill="#FFFFFF" stroke="#000000" stroke-width="1.7">
                    <path d="M19.8985104,29.1406308 L24.2580167,25.8023161 L17.1711698,16.9529614 L21.7648257,13.8871008 C22.1350905,13.6399816 22.2349198,13.139493 21.9878007,12.7692282 C21.9231065,12.6722952 21.8381619,12.5905438 21.7388225,12.5296092 L0.613737352,0.0595364576 C0.424008828,-0.0568425292 0.17585966,0.00261901962 0.0594806733,0.192347544 C-0.000269328224,0.289755847 -0.0158580412,0.407950184 0.0165936377,0.517519015 L6.44948273,23.4990268 C6.57589925,23.9258556 7.02439316,24.1693878 7.45122192,24.0429713 C7.52670854,24.020614 7.59851243,23.9873179 7.66434617,23.9441439 L12.6000414,20.2473585 L19.8985104,29.1406308 Z" id="Path"></path>
                </g>
                <path d="M27.9222782,35.778278 L23.6221338,30.2351643 C22.8536888,29.2772773 22.0539362,28.9978935 21.2779417,28.9978935 C19.884744,28.9978935 18.9163574,29.8786684 18.9163574,31.2718661 C18.9163574,31.9618322 19.7417374,33.3161576 19.7417374,33.3161576 C22.0123209,37.2239331 23.9009953,40.0946151 25.4077606,41.9282038 C25.7702549,42.3693246 26.1618182,42.6422199 26.3218883,42.7923554 C26.4819585,42.9424909 35.103247,48.9529947 36.4641152,49.1989479 C37.3713606,49.3629167 41.6454531,49.3629167 49.2863928,49.1989479 L65.4513091,60.1049063" id="Shape-Copy-2" fill="#C0FFE6"></path>
                <path d="M27.9222782,35.778278 L23.6221338,30.2351643 C22.8536888,29.2772773 22.0539362,28.9978935 21.2779417,28.9978935 C19.884744,28.9978935 18.9163574,29.8786684 18.9163574,31.2718661 C18.9163574,31.9618322 19.7417374,33.3161576 19.7417374,33.3161576 C22.0123209,37.2239331 23.9009953,40.0946151 25.4077606,41.9282038 C25.7702549,42.3693246 26.1618182,42.6422199 26.3218883,42.7923554 C26.4819585,42.9424909 35.103247,48.9529947 36.4641152,49.1989479 C37.3713606,49.3629167 41.6454531,49.3629167 49.2863928,49.1989479 L61.1937837,57.08977" id="Shape" stroke="#000000" stroke-width="1.7" stroke-linecap="round"></path>
            </g>
        </g>
    </g>
</svg>